<?xml version="1.0" encoding="UTF-8"?>
<svg width="160px" height="79px" viewBox="0 0 160 79" version="1.1" xmlns="http://www.w3.org/2000/svg" xmlns:xlink="http://www.w3.org/1999/xlink">
    <!-- Generator: Sketch 63.1 (92452) - https://sketch.com -->
    <title>Group 26</title>
    <desc>Created with Sketch.</desc>
    <g id="Page-1" stroke="none" stroke-width="1" fill="none" fill-rule="evenodd">
        <g id="01.site" transform="translate(-1063.000000, -3745.000000)">
            <g id="Group-27" transform="translate(1063.000000, 3745.000000)">
                <g id="Group-26">
                    <g id="noun_link_1489344" transform="translate(40.500000, 0.000000)" fill="#FFFFFF" fill-rule="nonzero">
                        <g id="Group">
                            <path d="M24.9,79.0000153 C31.5046733,79.0073406 37.8394455,76.3798498 42.5,71.7 L53.7,60.6 L46.6,53.5 L35.5,64.7 C31.7129848,68.4870153 26.1932897,69.9660132 21.0201306,68.5798695 C15.8469715,67.1937257 11.8062743,63.1530285 10.4201305,57.9798694 C9.03398677,52.8067103 10.5129847,47.2870152 14.3,43.5 L25.5,32.4 L18.4,25.3 L7.3,36.5 C0.184517473,43.621105 -1.94310103,54.3261228 1.90853065,63.6269379 C5.76016233,72.927753 14.8332132,78.9943759 24.9,79.0000153 L24.9,79.0000153 Z" id="Path"></path>
                            <path d="M35.5,8.3 L24.3,19.4 L31.4,26.5 L42.5,15.3 C46.2870152,11.5129847 51.8067103,10.0339868 56.9798694,11.4201305 C62.1530285,12.8062743 66.1937257,16.8469715 67.5798695,22.0201306 C68.9660132,27.1932897 67.4870153,32.7129848 63.7,36.5 L52.5,47.6 L59.6,54.7 L70.7,43.5 C77.2860403,37.2742723 79.9693678,27.961782 77.7058697,19.1861232 C75.4423717,10.4104643 68.5895357,3.55762831 59.8138768,1.29413028 C51.038218,-0.969367758 41.7257277,1.71395972 35.5,8.3 Z" id="Path"></path>
                            <rect id="Rectangle" transform="translate(39.010678, 40.000000) rotate(-45.000000) translate(-39.010678, -40.000000) " x="18.6106781" y="35" width="40.8" height="10"></rect>
                        </g>
                    </g>
                    <line x1="130.5" y1="42.5" x2="159.5" y2="42.5" id="Line-6" stroke="#FFFFFF" stroke-linecap="square"></line>
                    <line x1="0.5" y1="42.5" x2="29.5" y2="42.5" id="Line-6" stroke="#FFFFFF" stroke-linecap="square"></line>
                </g>
            </g>
        </g>
    </g>
</svg>