<?xml version="1.0" encoding="UTF-8"?>
<svg width="247px" height="71px" viewBox="0 0 247 71" version="1.1" xmlns="http://www.w3.org/2000/svg" xmlns:xlink="http://www.w3.org/1999/xlink">
    <!-- Generator: Sketch 52.3 (67297) - http://www.bohemiancoding.com/sketch -->
    <title>Group 3</title>
    <desc>Created with Sketch.</desc>
    <g id="Page-3" stroke="none" stroke-width="1" fill="none" fill-rule="evenodd">
        <g id="Artboard" transform="translate(-218.000000, -43.000000)">
            <g id="Group-3" transform="translate(218.000000, 43.000000)">
                <path d="M23.8699729,29.4817814 C23.8699729,33.3684405 22.9650752,36.4939153 21.1552527,38.8582996 C19.3454301,41.2226839 16.8182383,42.4048583 13.5736014,42.4048583 C12.1877012,42.4048583 10.9567143,42.1498001 9.88060355,41.6396761 C8.80449283,41.1295521 7.88329066,40.3805717 7.11696939,39.3927126 L7.11696939,52 L0,52 L0,15.611336 L6.43217508,15.611336 L6.84794306,18.7206478 C7.63056903,17.5708445 8.57215179,16.6842136 9.67271957,16.0607287 C10.7732873,15.4372438 12.0572638,15.1255061 13.5246875,15.1255061 C16.8019338,15.1255061 19.3454301,16.3967484 21.1552527,18.9392713 C22.9650752,21.4817941 23.8699729,24.8258902 23.8699729,28.9716599 L23.8699729,29.4817814 Z M16.7285466,28.9716599 C16.7285466,26.4939147 16.3127828,24.4858377 15.4812427,22.9473684 C14.6497026,21.4088992 13.3779545,20.6396761 11.6659601,20.6396761 C10.5898494,20.6396761 9.67272336,20.8582974 8.91455444,21.2955466 C8.15638553,21.7327957 7.5571965,22.3562713 7.11696939,23.1659919 L7.11696939,34.6801619 C7.5571965,35.4251049 8.15638553,35.9919009 8.91455444,36.3805668 C9.67272336,36.7692327 10.6061539,36.9635628 11.714874,36.9635628 C13.443173,36.9635628 14.7108451,36.2915047 15.5179281,34.9473684 C16.3250111,33.6032321 16.7285466,31.781388 16.7285466,29.4817814 L16.7285466,28.9716599 Z M42.1256108,21.708502 L39.5087183,21.6356275 C38.4489123,21.6356275 37.5766235,21.8542488 36.8918258,22.291498 C36.2070281,22.7287471 35.6852852,23.3441256 35.3265817,24.1376518 L35.3265817,41.8947368 L28.2096123,41.8947368 L28.2096123,15.611336 L34.8374429,15.611336 L35.1553831,19.4979757 C35.774962,18.1214506 36.5779568,17.0485868 37.5643916,16.2793522 C38.5508265,15.5101176 39.6880628,15.1255061 40.9761347,15.1255061 C41.3348383,15.1255061 41.6650036,15.1538459 41.9666407,15.2105263 C42.2682778,15.2672068 42.5739865,15.336032 42.883776,15.417004 L42.1256108,21.708502 Z M44.5820658,28.5101215 C44.5820658,24.5910735 45.6826171,21.3805793 47.8837527,18.8785425 C50.0848882,16.3765057 53.1338229,15.1255061 57.030648,15.1255061 C60.9437779,15.1255061 64.009017,16.3724572 66.2264573,18.8663968 C68.4438976,21.3603364 69.5526011,24.5748791 69.5526011,28.5101215 L69.5526011,29.0202429 C69.5526011,32.9716797 68.4479737,36.190271 66.2386858,38.6761134 C64.0293978,41.1619557 60.9763871,42.4048583 57.0795619,42.4048583 C53.166432,42.4048583 50.1052691,41.1619557 47.8959811,38.6761134 C45.6866932,36.190271 44.5820658,32.9716797 44.5820658,29.0202429 L44.5820658,28.5101215 Z M51.6990352,29.0202429 C51.6990352,31.417016 52.1229513,33.3400737 52.9707961,34.7894737 C53.8186409,36.2388736 55.1882158,36.9635628 57.0795619,36.9635628 C58.9219939,36.9635628 60.2711882,36.2348251 61.1271854,34.7773279 C61.9831826,33.3198308 62.4111747,31.4008216 62.4111747,29.0202429 L62.4111747,28.5101215 C62.4111747,26.178126 61.9791064,24.275311 61.1149569,22.8016194 C60.2508074,21.3279279 58.8893847,20.5910931 57.030648,20.5910931 C55.1882161,20.5910931 53.8390217,21.3319764 52.9830246,22.8137652 C52.1270274,24.295554 51.6990352,26.1943204 51.6990352,28.5101215 L51.6990352,29.0202429 Z M93.5800767,34.2672065 L81.0825806,34.2672065 L78.6613436,41.8947368 L71.4465464,41.8947368 L83.6994731,6.52631579 L91.012098,6.52631579 L103.216111,41.8947368 L96.0013137,41.8947368 L93.5800767,34.2672065 Z M82.8434802,28.7044534 L91.819177,28.7044534 L87.4169279,14.8097166 L87.2701863,14.8097166 L82.8434802,28.7044534 Z M116.996129,36.9635628 C118.267896,36.9635628 119.286925,36.5951454 120.053246,35.8582996 C120.819568,35.1214538 121.202722,34.137658 121.202722,32.9068826 L127.683811,32.9068826 L127.757182,33.0526316 C127.822401,35.7085153 126.8156,37.9311651 124.73675,39.7206478 C122.6579,41.5101304 120.077719,42.4048583 116.996129,42.4048583 C113.05039,42.4048583 110.009607,41.1660043 107.87369,38.6882591 C105.737774,36.2105139 104.669831,33.0283595 104.669831,29.1417004 L104.669831,28.4129555 C104.669831,24.5424908 105.733698,21.3603364 107.861462,18.8663968 C109.989226,16.3724572 113.025933,15.1255061 116.971672,15.1255061 C120.232613,15.1255061 122.861708,16.0485738 124.859035,17.8947368 C126.856362,19.7408999 127.822401,22.1700254 127.757182,25.1821862 L127.708268,25.3279352 L121.202722,25.3279352 C121.202722,23.9676045 120.82772,22.8380612 120.077703,21.9392713 C119.327687,21.0404813 118.292353,20.5910931 116.971672,20.5910931 C115.080326,20.5910931 113.747436,21.3198308 112.972962,22.7773279 C112.198489,24.2348251 111.811258,26.1133488 111.811258,28.4129555 L111.811258,29.1417004 C111.811258,31.4898903 112.198489,33.3805596 112.972962,34.8137652 C113.747436,36.2469707 115.088478,36.9635628 116.996129,36.9635628 Z M140.240982,9.17408907 L140.240982,15.611336 L144.692145,15.611336 L144.692145,20.5910931 L140.240982,20.5910931 L140.240982,33.9757085 C140.240982,34.9959565 140.45294,35.7246942 140.876863,36.1619433 C141.300785,36.5991925 141.871441,36.8178138 142.588849,36.8178138 C142.963857,36.8178138 143.28587,36.7975711 143.554898,36.757085 C143.823925,36.716599 144.137786,36.6477738 144.49649,36.5506073 L145.107913,41.6761134 C144.390506,41.9190296 143.689414,42.101214 143.004617,42.2226721 C142.319819,42.3441302 141.577966,42.4048583 140.779035,42.4048583 C138.317024,42.4048583 136.42163,41.7328002 135.092797,40.388664 C133.763963,39.0445277 133.099556,36.9149943 133.099556,34 L133.099556,20.5910931 L129.23536,20.5910931 L129.23536,15.611336 L133.099556,15.611336 L133.099556,9.17408907 L140.240982,9.17408907 Z M156.686807,41.8947368 L149.54538,41.8947368 L149.54538,15.611336 L156.686807,15.611336 L156.686807,41.8947368 Z M156.686807,9.31983806 L149.54538,9.31983806 L149.54538,4 L156.686807,4 L156.686807,9.31983806 Z M172.056526,32.1052632 L172.521208,34.534413 L172.667949,34.534413 L173.157088,32.1052632 L177.510423,15.611336 L184.96979,15.611336 L175.969636,41.8947368 L169.14615,41.8947368 L160.145996,15.611336 L167.605363,15.611336 L172.056526,32.1052632 Z M199.361231,42.4048583 C195.54593,42.4048583 192.496995,41.1902955 190.214336,38.7611336 C187.931677,36.3319717 186.790364,33.2469823 186.790364,29.5060729 L186.790364,28.534413 C186.790364,24.6315594 187.870535,21.4170167 190.030909,18.8906883 C192.191283,16.3643598 195.089401,15.1093117 198.725351,15.1255061 C202.296082,15.1255061 205.067841,16.1943213 207.04071,18.3319838 C209.01358,20.4696463 210,23.3603057 210,27.0040486 L210,30.8663968 L194.200817,30.8663968 L194.151903,31.0121457 C194.282341,32.7449479 194.865225,34.1700349 195.900574,35.2874494 C196.935923,36.4048639 198.342183,36.9635628 200.119396,36.9635628 C201.700953,36.9635628 203.013462,36.8056696 204.056964,36.4898785 C205.100465,36.1740875 206.241777,35.6761168 207.480935,34.9959514 L209.413033,39.3684211 C208.336923,40.2429194 206.926587,40.9676085 205.181983,41.5425101 C203.437379,42.1174118 201.497148,42.4048583 199.361231,42.4048583 Z M198.725351,20.5910931 C197.40467,20.5910931 196.361184,21.0931124 195.594863,22.097166 C194.828541,23.1012196 194.355712,24.4210445 194.17636,26.0566802 L194.249731,26.1781377 L203.005315,26.1781377 L203.005315,25.5465587 C203.005315,24.0404783 202.650693,22.8380612 201.941438,21.9392713 C201.232184,21.0404813 200.160165,20.5910931 198.725351,20.5910931 Z" id="proActive" fill="#FFFFFF"></path>
                <rect id="Rectangle" fill="#FFFFFF" opacity="0" x="2" y="61" width="3" height="3" rx="1.5"></rect>
                <path d="M225,65.8845171 C227.363245,65.0863527 229.050383,63.671446 230.061462,61.6397547 C231.072541,59.6080634 231.578073,57.0926738 231.578073,54.0935105 L231.578073,46.7286663 C231.578073,44.1890522 232.12015,41.9518066 233.204319,40.0168625 C234.288488,38.0819184 235.963444,36.5823593 238.229236,35.51814 C235.963444,34.4781076 234.288488,32.984595 233.204319,31.0375575 C232.12015,29.09052 231.578073,26.8230414 231.578073,24.2350537 L231.578073,16.8702095 C231.578073,13.8710462 231.072541,11.3556566 230.061462,9.32396525 C229.050383,7.29227395 227.363245,5.8773673 225,5.07920286 L226.754153,0 C231.480644,1.33027407 234.854918,3.44054082 236.877076,6.33086357 C238.899235,9.22118631 239.910299,12.7342665 239.910299,16.8702095 L239.910299,24.2350537 C239.910299,26.7988546 240.482829,28.7821425 241.627907,30.184977 C242.772985,31.5878115 244.563664,32.2892182 247,32.2892182 L247,38.7470618 C244.563664,38.7470618 242.772985,39.4484685 241.627907,40.851303 C240.482829,42.2541375 239.910299,44.213239 239.910299,46.7286663 L239.910299,54.0935105 C239.910299,58.2294535 238.899235,61.7485803 236.877076,64.6509964 C234.854918,67.5534126 231.480644,69.6697259 226.754153,71 L225,65.8845171 Z" id="}" fill="#FB53A3"></path>
                <path d="M22.4246205,59.1116675 L22.5080442,60.0295443 C22.7347868,59.6953747 23.0192802,59.4371566 23.3615331,59.2548823 C23.703786,59.072608 24.0995099,58.9814722 24.5487168,58.9814722 C25.0022019,58.9814722 25.3915087,59.0856274 25.716649,59.2939409 C26.0417892,59.5022544 26.2856407,59.81472 26.4482108,60.231347 C26.6621189,59.8407592 26.9444733,59.5348033 27.2952825,59.3134702 C27.6460917,59.0921371 28.056789,58.9814722 28.5273867,58.9814722 C29.224727,58.9814722 29.7755319,59.223416 30.1798181,59.707311 C30.5841044,60.1912059 30.7862444,60.925717 30.7862444,61.9108663 L30.7862444,66.1552328 L29.2268625,66.1552328 L29.2268625,61.9043565 C29.2268625,61.3054552 29.1252577,60.8844946 28.9220451,60.6414622 C28.7188324,60.3984298 28.414018,60.2769154 28.0075927,60.2769154 C27.6738962,60.2769154 27.3915418,60.3680512 27.1605211,60.5503255 C26.9295004,60.7325998 26.7626546,60.9777985 26.6599787,61.2859289 C26.6599787,61.3510269 26.6621178,61.4074443 26.666396,61.4551828 C26.6706741,61.5029213 26.6728132,61.5484892 26.6728132,61.5918878 L26.6728132,66.1552328 L25.1134313,66.1552328 L25.1134313,61.9043565 C25.1134313,61.3271545 25.0096874,60.9116187 24.8021966,60.6577366 C24.5947058,60.4038545 24.2898914,60.2769154 23.8877443,60.2769154 C23.5711603,60.2769154 23.3027098,60.3387575 23.0823845,60.4624437 C22.8620592,60.5861298 22.6877267,60.7608068 22.5593819,60.9864797 L22.5593819,66.1552328 L21,66.1552328 L21,59.1116675 L22.4246205,59.1116675 Z M44.1807821,66.2919379 C43.1968051,66.2919379 42.4128439,65.965368 41.8288749,65.3122183 C41.2449059,64.6590687 40.9529258,63.8204024 40.9529258,62.7961943 L40.9529258,62.5358037 C40.9529258,61.5115956 41.2427668,60.6620798 41.8224577,59.9872308 C42.4021485,59.3123819 43.1283554,58.9771323 44.0011003,58.9814722 C44.9380175,58.9814722 45.6556683,59.2689839 46.1540741,59.844016 C46.6524798,60.4190481 46.901679,61.1904475 46.901679,62.1582374 L46.901679,63.0891337 L42.5700626,63.0891337 L42.5572282,63.1216825 C42.5828971,63.6815251 42.7443953,64.139374 43.0417275,64.4952429 C43.3390597,64.8511118 43.7508265,65.0290436 44.2770403,65.0290436 C44.6963001,65.0290436 45.0556602,64.976966 45.3551315,64.8728092 C45.6546028,64.7686525 45.9433743,64.6189294 46.2214548,64.4236355 L46.7219971,65.458688 C46.4610293,65.6930407 46.1145034,65.8905016 45.6824092,66.0510766 C45.2503149,66.2116516 44.7497776,66.2919379 44.1807821,66.2919379 Z M44.0011003,60.2508763 C43.6160658,60.2508763 43.2994866,60.4060242 43.0513533,60.7163245 C42.8032199,61.0266248 42.6492085,61.4204616 42.5893142,61.8978468 L42.6021486,61.9303956 L45.3551315,61.9303956 L45.3551315,61.7676515 C45.3551315,61.3206454 45.2428314,60.9561022 45.018228,60.674011 C44.7936245,60.3919198 44.4545854,60.2508763 44.0011003,60.2508763 Z M58.345385,59.1116675 L58.4352259,60.1271908 C58.6619685,59.766982 58.9475314,59.48598 59.2919234,59.2841763 C59.6363153,59.0823726 60.0245526,58.9814722 60.4566469,58.9814722 C61.1796561,58.9814722 61.7432954,59.2038869 62.1475816,59.6487231 C62.5518678,60.0935592 62.7540079,60.7868422 62.7540079,61.7285929 L62.7540079,66.1552328 L61.194626,66.1552328 L61.194626,61.7416124 C61.194626,61.2121489 61.086604,60.8356713 60.8705569,60.6121683 C60.6545098,60.3886652 60.3261658,60.2769154 59.8855153,60.2769154 C59.5817658,60.2769154 59.3101067,60.3452672 59.0705297,60.481973 C58.8309526,60.6186787 58.6341602,60.806375 58.4801464,61.0450676 L58.4801464,66.1552328 L56.9207645,66.1552328 L56.9207645,59.1116675 L58.345385,59.1116675 Z M75.089706,57.3995994 L75.089706,59.1116675 L76.3346447,59.1116675 L76.3346447,60.2834251 L75.089706,60.2834251 L75.089706,64.1762644 C75.089706,64.4670353 75.1517384,64.6742608 75.2758051,64.7979469 C75.3998718,64.9216331 75.5645785,64.9834752 75.7699302,64.9834752 C75.8554935,64.9834752 75.9389164,64.9758806 76.0202014,64.960691 C76.1014865,64.9455015 76.1784922,64.9248875 76.251221,64.8988483 L76.4180684,66.0575864 C76.2854454,66.1313641 76.1271558,66.1888664 75.9431949,66.2300951 C75.759234,66.2713239 75.5688587,66.2919379 75.3720633,66.2919379 C74.7987897,66.2919379 74.3495895,66.1216008 74.0244493,65.7809214 C73.699309,65.440242 73.5367413,64.9053617 73.5367413,64.1762644 L73.5367413,60.2834251 L72.4779018,60.2834251 L72.4779018,59.1116675 L73.5367413,59.1116675 L73.5367413,57.3995994 L75.089706,57.3995994 Z M89.472494,66.2919379 C88.488517,66.2919379 87.7045557,65.965368 87.1205867,65.3122183 C86.5366178,64.6590687 86.2446376,63.8204024 86.2446376,62.7961943 L86.2446376,62.5358037 C86.2446376,61.5115956 86.5344787,60.6620798 87.1141695,59.9872308 C87.6938603,59.3123819 88.4200673,58.9771323 89.2928121,58.9814722 C90.2297294,58.9814722 90.9473802,59.2689839 91.4457859,59.844016 C91.9441917,60.4190481 92.1933908,61.1904475 92.1933908,62.1582374 L92.1933908,63.0891337 L87.8617744,63.0891337 L87.84894,63.1216825 C87.874609,63.6815251 88.0361071,64.139374 88.3334393,64.4952429 C88.6307715,64.8511118 89.0425383,65.0290436 89.5687521,65.0290436 C89.9880119,65.0290436 90.3473721,64.976966 90.6468433,64.8728092 C90.9463146,64.7686525 91.2350862,64.6189294 91.5131666,64.4236355 L92.013709,65.458688 C91.7527411,65.6930407 91.4062153,65.8905016 90.974121,66.0510766 C90.5420268,66.2116516 90.0414894,66.2919379 89.472494,66.2919379 Z M89.2928121,60.2508763 C88.9077776,60.2508763 88.5911985,60.4060242 88.3430651,60.7163245 C88.0949318,61.0266248 87.9409203,61.4204616 87.8810261,61.8978468 L87.8938605,61.9303956 L90.6468433,61.9303956 L90.6468433,61.7676515 C90.6468433,61.3206454 90.5345433,60.9561022 90.3099398,60.674011 C90.0853364,60.3919198 89.7462972,60.2508763 89.2928121,60.2508763 Z M113.98346,62.7310966 C113.98346,61.6070717 114.220894,60.7011385 114.69577,60.0132699 C115.170646,59.3254013 115.838029,58.9814722 116.69794,58.9814722 C117.074418,58.9814722 117.411318,59.0585037 117.70865,59.2125689 C118.005982,59.3666341 118.263738,59.5868789 118.481924,59.87331 L118.481924,56 L120.041306,56 L120.041306,66.1552328 L118.732195,66.1552328 L118.578182,65.2829244 C118.355718,65.6127541 118.088337,65.8633775 117.776031,66.0348022 C117.463725,66.2062269 117.100087,66.2919379 116.685105,66.2919379 C115.833751,66.2919379 115.170646,65.9773024 114.69577,65.348022 C114.220894,64.7187416 113.98346,63.8920098 113.98346,62.8678017 L113.98346,62.7310966 Z M115.542842,62.8678017 C115.542842,63.5187814 115.665837,64.0373875 115.911832,64.4236355 C116.157826,64.8098834 116.548202,65.0030045 117.082972,65.0030045 C117.412391,65.0030045 117.691536,64.9313978 117.920418,64.7881823 C118.1493,64.6449667 118.336466,64.4409961 118.481924,64.1762644 L118.481924,61.1036555 C118.336466,60.8432636 118.14823,60.640378 117.917209,60.4949925 C117.686189,60.349607 117.412391,60.2769154 117.095807,60.2769154 C116.565315,60.2769154 116.173869,60.5036699 115.921457,60.9571858 C115.669046,61.4107016 115.542842,62.0019994 115.542842,62.7310966 L115.542842,62.8678017 Z M132.152402,66.1552328 L130.59302,66.1552328 L130.59302,59.1116675 L132.152402,59.1116675 L132.152402,66.1552328 Z M132.152402,57.3865799 L130.59302,57.3865799 L130.59302,56 L132.152402,56 L132.152402,57.3865799 Z M142.389672,62.7310966 C142.389672,61.6114115 142.631385,60.7065633 143.114817,60.0165248 C143.598249,59.3264863 144.26991,58.9814722 145.129821,58.9814722 C145.544802,58.9814722 145.90951,59.0715231 146.223955,59.2516274 C146.5384,59.4317318 146.804711,59.6910349 147.022898,60.0295443 L147.176911,59.1116675 L148.473187,59.1116675 L148.473187,66.1552328 C148.473187,67.0622646 148.19725,67.7631422 147.645367,68.2578868 C147.093484,68.7526314 146.310592,69 145.296668,69 C144.958693,69 144.593986,68.9511773 144.202534,68.8535303 C143.811082,68.7558833 143.45707,68.6267743 143.140486,68.4661993 L143.474181,67.2228343 C143.73087,67.3573701 144.014294,67.4626102 144.324461,67.5385578 C144.634628,67.6145055 144.954415,67.6524787 145.283834,67.6524787 C145.848551,67.6524787 146.261387,67.5298794 146.522355,67.284677 C146.783323,67.0394747 146.913805,66.662997 146.913805,66.1552328 L146.913805,65.432649 C146.695619,65.7147402 146.437863,65.9284753 146.140531,66.0738608 C145.843199,66.2192463 145.502021,66.2919379 145.116986,66.2919379 C144.265632,66.2919379 143.598249,65.9773024 143.114817,65.348022 C142.631385,64.7187416 142.389672,63.8920098 142.389672,62.8678017 L142.389672,62.7310966 Z M143.949054,62.8678017 C143.949054,63.5144416 144.076328,64.0319627 144.330878,64.4203806 C144.585429,64.8087985 144.980083,65.0030045 145.514853,65.0030045 C145.84855,65.0030045 146.129835,64.9324828 146.358716,64.7914372 C146.587598,64.6503915 146.772626,64.4475059 146.913805,64.1827742 L146.913805,61.0971457 C146.768347,60.8410937 146.581181,60.640378 146.352299,60.4949925 C146.123417,60.349607 145.84855,60.2769154 145.527688,60.2769154 C144.992918,60.2769154 144.596124,60.5047549 144.337295,60.9604407 C144.078467,61.4161265 143.949054,62.0063392 143.949054,62.7310966 L143.949054,62.8678017 Z M160.552197,66.1552328 L158.992815,66.1552328 L158.992815,59.1116675 L160.552197,59.1116675 L160.552197,66.1552328 Z M160.552197,57.3865799 L158.992815,57.3865799 L158.992815,56 L160.552197,56 L160.552197,57.3865799 Z M173.009822,57.3995994 L173.009822,59.1116675 L174.25476,59.1116675 L174.25476,60.2834251 L173.009822,60.2834251 L173.009822,64.1762644 C173.009822,64.4670353 173.071854,64.6742608 173.195921,64.7979469 C173.319987,64.9216331 173.484694,64.9834752 173.690046,64.9834752 C173.775609,64.9834752 173.859032,64.9758806 173.940317,64.960691 C174.021602,64.9455015 174.098608,64.9248875 174.171337,64.8988483 L174.338184,66.0575864 C174.205561,66.1313641 174.047272,66.1888664 173.863311,66.2300951 C173.67935,66.2713239 173.488974,66.2919379 173.292179,66.2919379 C172.718905,66.2919379 172.269705,66.1216008 171.944565,65.7809214 C171.619425,65.440242 171.456857,64.9053617 171.456857,64.1762644 L171.456857,60.2834251 L170.398017,60.2834251 L170.398017,59.1116675 L171.456857,59.1116675 L171.456857,57.3995994 L173.009822,57.3995994 Z M188.592628,66.1552328 C188.537012,65.9772984 188.491022,65.8037064 188.454658,65.6344517 C188.418294,65.465197 188.393694,65.2959448 188.38086,65.12669 C188.166952,65.4565198 187.885667,65.733182 187.536997,65.956685 C187.188327,66.1801881 186.79795,66.2919379 186.365856,66.2919379 C185.642847,66.2919379 185.087764,66.1031566 184.70059,65.7255884 C184.313417,65.3480201 184.119833,64.8294141 184.119833,64.1697546 C184.119833,63.4883959 184.385075,62.9578553 184.915567,62.5781172 C185.446059,62.198379 186.192587,62.0085128 187.155173,62.0085128 L188.368026,62.0085128 L188.368026,61.3900851 C188.368026,61.0211966 188.261073,60.7325999 188.047165,60.5242864 C187.833257,60.3159729 187.527373,60.2118177 187.129504,60.2118177 C186.774417,60.2118177 186.492062,60.2986137 186.282432,60.4722083 C186.072803,60.6458029 185.967989,60.8693026 185.967989,61.1427141 L184.466362,61.1427141 L184.459945,61.1036555 C184.429998,60.5481528 184.674919,60.0555855 185.194715,59.6259389 C185.714512,59.1962923 186.391521,58.9814722 187.225762,58.9814722 C188.034335,58.9814722 188.686744,59.1897826 189.183011,59.6064096 C189.679278,60.0230366 189.927407,60.621929 189.927407,61.4031047 L189.927407,64.5343015 C189.927407,64.8250724 189.946659,65.1039045 189.985162,65.3708062 C190.023666,65.6377079 190.085698,65.8991808 190.171261,66.1552328 L188.592628,66.1552328 Z M186.680299,65.0225338 C187.07389,65.0225338 187.427903,64.9227184 187.742348,64.7230846 C188.056792,64.5234508 188.26535,64.2956114 188.368026,64.0395593 L188.368026,62.997997 L187.129504,62.997997 C186.676019,62.997997 186.320937,63.1119167 186.064247,63.3397596 C185.807558,63.5676025 185.679215,63.8355852 185.679215,64.1437156 C185.679215,64.4127872 185.765846,64.6265223 185.939112,64.7849274 C186.112377,64.9433325 186.359437,65.0225338 186.680299,65.0225338 Z M202,66.1552328 L200.440618,66.1552328 L200.440618,56 L202,56 L202,66.1552328 Z" id="mente-digital" fill="#FFFFFF"></path>
            </g>
        </g>
    </g>
</svg>